<svg id="visual" viewBox="0 0 960 540" width="960" height="540" xmlns="http://www.w3.org/2000/svg" xmlns:xlink="http://www.w3.org/1999/xlink" version="1.1"><rect x="0" y="0" width="960" height="540" fill="#2a1261"></rect><defs><linearGradient id="grad1_0" x1="43.8%" y1="0%" x2="100%" y2="100%"><stop offset="14.444444444444446%" stop-color="#2a1261" stop-opacity="1"></stop><stop offset="85.55555555555554%" stop-color="#2a1261" stop-opacity="1"></stop></linearGradient></defs><defs><linearGradient id="grad2_0" x1="0%" y1="0%" x2="56.3%" y2="100%"><stop offset="14.444444444444446%" stop-color="#2a1261" stop-opacity="1"></stop><stop offset="85.55555555555554%" stop-color="#2a1261" stop-opacity="1"></stop></linearGradient></defs><g transform="translate(960, 0)"><path d="M0 457C-63.5 452.5 -126.9 448 -173.7 419.4C-220.5 390.9 -250.7 338.2 -296.3 296.3C-341.9 254.4 -402.9 223.2 -424.1 175.7C-445.3 128.1 -426.6 64 -408 0L0 0Z" fill="#8859ff"></path></g><g transform="translate(0, 540)"><path d="M0 -447C64.4 -450.1 128.8 -453.1 175.7 -424.1C222.5 -395 251.7 -333.7 285.7 -285.7C319.6 -237.6 358.4 -202.7 379.7 -157.3C401.1 -111.9 405 -55.9 409 0L0 0Z" fill="#8859ff"></path></g></svg>