<svg id="visual" viewBox="0 0 960 540" width="960" height="540" xmlns="http://www.w3.org/2000/svg" xmlns:xlink="http://www.w3.org/1999/xlink" version="1.1"><rect x="0" y="0" width="960" height="540" fill="#2a1261"></rect><defs><linearGradient id="grad1_0" x1="43.8%" y1="0%" x2="100%" y2="100%"><stop offset="14.444444444444446%" stop-color="#2a1261" stop-opacity="1"></stop><stop offset="85.55555555555554%" stop-color="#2a1261" stop-opacity="1"></stop></linearGradient></defs><defs><linearGradient id="grad2_0" x1="0%" y1="0%" x2="56.3%" y2="100%"><stop offset="14.444444444444446%" stop-color="#2a1261" stop-opacity="1"></stop><stop offset="85.55555555555554%" stop-color="#2a1261" stop-opacity="1"></stop></linearGradient></defs><g transform="translate(960, 0)"><path d="M0 459C-54.3 438.3 -108.6 417.7 -164.2 396.3C-219.7 375 -276.6 353 -312.5 312.5C-348.5 272.1 -363.6 213.2 -381.6 158C-399.5 102.9 -420.2 51.4 -441 0L0 0Z" fill="#8859ff"></path></g><g transform="translate(0, 540)"><path d="M0 -429C52 -411.1 104 -393.1 155.4 -375.1C206.8 -357 257.6 -338.9 306.9 -306.9C356.1 -274.9 403.8 -229.1 424.1 -175.7C444.3 -122.2 437.2 -61.1 430 0L0 0Z" fill="#8859ff"></path></g></svg>