<svg id="visual" viewBox="0 0 960 540" width="960" height="540" xmlns="http://www.w3.org/2000/svg" xmlns:xlink="http://www.w3.org/1999/xlink" version="1.1"><rect x="0" y="0" width="960" height="540" fill="#2a1261"></rect><defs><linearGradient id="grad1_0" x1="43.8%" y1="0%" x2="100%" y2="100%"><stop offset="14.444444444444446%" stop-color="#2a1261" stop-opacity="1"></stop><stop offset="85.55555555555554%" stop-color="#2a1261" stop-opacity="1"></stop></linearGradient></defs><defs><linearGradient id="grad2_0" x1="0%" y1="0%" x2="56.3%" y2="100%"><stop offset="14.444444444444446%" stop-color="#2a1261" stop-opacity="1"></stop><stop offset="85.55555555555554%" stop-color="#2a1261" stop-opacity="1"></stop></linearGradient></defs><g transform="translate(960, 0)"><path d="M0 459C-57.6 444.3 -115.1 429.5 -167.6 404.7C-220.1 379.8 -267.6 344.7 -301.2 301.2C-334.9 257.7 -354.8 205.8 -372.3 154.2C-389.8 102.6 -404.9 51.3 -420 0L0 0Z" fill="#8859ff"></path></g><g transform="translate(0, 540)"><path d="M0 -439C59.5 -440.6 119.1 -442.1 175.7 -424.1C232.2 -406 285.8 -368.3 319.6 -319.6C353.4 -270.9 367.5 -211.2 376.9 -156.1C386.4 -101 391.2 -50.5 396 0L0 0Z" fill="#8859ff"></path></g></svg>